<?xml version="1.0" encoding="UTF-8"?>
<svg version="1.1" xmlns="http://www.w3.org/2000/svg" width="191" height="190">
<path d="M0 0 C63.03 0 126.06 0 191 0 C191 62.7 191 125.4 191 190 C127.97 190 64.94 190 0 190 C0 127.3 0 64.6 0 0 Z " fill="#FEFEFE" transform="translate(0,0)"/>
<path d="M0 0 C46.86 0 93.72 0 142 0 C142 10.23 142 20.46 142 31 C141.34 31 140.68 31 140 31 C139.76539063 31.67417969 139.53078125 32.34835938 139.2890625 33.04296875 C137.67837951 36.7377779 135.58829804 39.95451188 133.375 43.3125 C132.74464844 44.28026367 132.74464844 44.28026367 132.1015625 45.26757812 C131.07161759 46.84760724 130.03634372 48.42416047 129 50 C125.42951324 48.56595597 124.03833873 46.96478736 122.08984375 43.68359375 C121.31737305 42.41418945 121.31737305 42.41418945 120.52929688 41.11914062 C120.00400391 40.23419922 119.47871094 39.34925781 118.9375 38.4375 C117.89202747 36.6814627 116.83898343 34.92990444 115.77734375 33.18359375 C115.31577881 32.40556396 114.85421387 31.62753418 114.37866211 30.82592773 C113.044172 28.69996985 113.044172 28.69996985 110 28 C109.73445313 28.72574219 109.46890625 29.45148437 109.1953125 30.19921875 C107.99927052 33.00170928 106.59670893 35.30479352 104.875 37.8125 C104.33617187 38.60269531 103.79734375 39.39289062 103.2421875 40.20703125 C102.83226563 40.79871094 102.42234375 41.39039063 102 42 C97.92790412 40.64263471 97.65050225 38.74798699 95.640625 35.02441406 C92.69979088 30.4497598 92.69979088 30.4497598 88.08398438 27.89245605 C84.59231529 27.5171968 81.25952206 27.49197902 77.75 27.609375 C76.63753906 27.60180176 75.52507812 27.59422852 74.37890625 27.58642578 C70.25225778 27.5757379 66.12586591 27.66893003 62 27.75 C52.76 27.8325 43.52 27.915 34 28 C34 55.39 34 82.78 34 111 C52.81 111 71.62 111 91 111 C91.66 109.35 92.32 107.7 93 106 C94.11609914 104.19686814 95.28477751 102.42537114 96.5 100.6875 C97.1084375 99.80449219 97.716875 98.92148438 98.34375 98.01171875 C98.8903125 97.34785156 99.436875 96.68398437 100 96 C100.66 96 101.32 96 102 96 C103.62677091 98.13770618 105.13979644 100.2675534 106.625 102.5 C107.04523438 103.12003906 107.46546875 103.74007812 107.8984375 104.37890625 C108.93837167 105.91517264 109.96997056 107.45707524 111 109 C115.60681781 104.87124819 118.64429357 99.67261122 121.93359375 94.4921875 C122.39894531 93.78835937 122.86429687 93.08453125 123.34375 92.359375 C123.75818359 91.71452148 124.17261719 91.06966797 124.59960938 90.40527344 C125.06173828 89.9415332 125.52386719 89.47779297 126 89 C130 89 130 89 131.55566406 90.09692383 C146.44229212 106.51453453 142 117.95358871 142 142 C95.14 142 48.28 142 0 142 C0 95.14 0 48.28 0 0 Z " fill="#2B2D37" transform="translate(24,23)"/>
<path d="M0 0 C48.84 0 97.68 0 148 0 C148 42.69230769 148 42.69230769 134.83105469 57.45410156 C132.86287483 59.11577021 131.51986911 59.60944114 129 60 C128.67725098 59.50072998 128.35450195 59.00145996 128.02197266 58.48706055 C126.55653366 56.22039898 125.09077031 53.95394734 123.625 51.6875 C123.11710937 50.90181641 122.60921875 50.11613281 122.0859375 49.30664062 C121.59609375 48.54931641 121.10625 47.79199219 120.6015625 47.01171875 C120.15119629 46.31522217 119.70083008 45.61872559 119.23681641 44.90112305 C116.93012831 41.00615387 116.93012831 41.00615387 113 39 C112.690625 39.99 112.690625 39.99 112.375 41 C110.48847129 45.11606263 107.79432021 48.4587703 105 52 C103.16015625 51.37792969 103.16015625 51.37792969 101 50 C100.13671521 47.98826339 99.2838848 45.97203005 98.4375 43.953125 C96.03392111 40.22289543 94.721215 38.45567295 90.40771484 37.3137207 C82.30324223 36.2677499 74.15090745 36.57742696 66 36.75 C53.13 36.87375 53.13 36.87375 40 37 C40.33 60.76 40.66 84.52 41 109 C49.435625 109.2475 57.87125 109.495 66.5625 109.75 C70.5390564 109.91387207 70.5390564 109.91387207 74.59594727 110.08105469 C85.11571091 110.87275251 85.11571091 110.87275251 94.77850342 107.78344727 C96.97775052 105.29048964 98.04360869 102.72143366 99.10522461 99.59863281 C99.54813843 98.31230957 99.54813843 98.31230957 100 97 C100.99 97 101.98 97 103 97 C103 96.34 103 95.68 103 95 C103.99 95 104.98 95 106 95 C107.82421875 97.08203125 107.82421875 97.08203125 109.6875 99.8125 C110.31011719 100.70582031 110.93273437 101.59914063 111.57421875 102.51953125 C113 105 113 105 113 108 C116.78034623 104.52263974 116.78034623 104.52263974 119 100 C119.7425 99.29875 120.485 98.5975 121.25 97.875 C124.68006454 94.28902344 126.75226586 90.39025519 129 86 C131.39270868 86.38608463 132.6855435 86.66861808 134.37890625 88.453125 C134.76949219 89.04609375 135.16007813 89.6390625 135.5625 90.25 C135.95566406 90.83265625 136.34882813 91.4153125 136.75390625 92.015625 C137.64784122 93.43919543 138.50946773 94.88324947 139.34936523 96.33935547 C140.91689129 98.99942743 140.91689129 98.99942743 142.80664062 101.18701172 C149.79454933 110.13219897 148.83298324 119.34417803 148.5 130.125 C148.47341253 131.94526922 148.44994993 133.76558689 148.4296875 135.5859375 C148.22973739 148.77026261 148.22973739 148.77026261 147 150 C145.11669453 150.09873281 143.22964162 150.12632187 141.34375 150.12698364 C140.115354 150.12980347 138.88695801 150.13262329 137.62133789 150.13552856 C136.24755845 150.13358397 134.87377915 150.13153578 133.5 150.12939453 C132.06306921 150.13074853 130.62613877 150.13252846 129.18920898 150.13470459 C125.27609411 150.13927906 121.36300549 150.13748931 117.44989014 150.1343255 C113.3637281 150.13180197 109.27756837 150.13413942 105.19140625 150.13571167 C98.32812088 150.13753339 91.46484625 150.13512701 84.6015625 150.13037109 C76.65527994 150.12492847 68.70902303 150.12669112 60.76274109 150.1321975 C53.95256836 150.13672857 47.14240337 150.13737921 40.33222961 150.13475883 C36.25940531 150.13319602 32.18659307 150.13300239 28.11376953 150.13629532 C24.28564243 150.13917395 20.45754855 150.13719849 16.62942505 150.13140106 C15.22046972 150.13007342 13.81151162 150.13046765 12.40255737 150.13266373 C10.48712257 150.13537504 8.57168168 150.13138058 6.65625 150.12698364 C5.58181641 150.12660662 4.50738281 150.12622959 3.40039062 150.12584114 C1 150 1 150 0 149 C-0.09660952 147.07638373 -0.12187168 145.14916934 -0.12025452 143.22312927 C-0.12162918 141.96804565 -0.12300385 140.71296204 -0.12442017 139.41984558 C-0.12088055 138.01614356 -0.11724574 136.61244178 -0.11352539 135.20874023 C-0.11324353 133.74063112 -0.11340124 132.27252187 -0.1139679 130.80441284 C-0.1142559 126.80665343 -0.10835874 122.80892376 -0.10139394 118.81117129 C-0.09516085 114.63779267 -0.09455664 110.46441344 -0.09336853 106.29103088 C-0.09025508 98.38267208 -0.08204151 90.47432703 -0.07201904 82.5659743 C-0.0587732 71.88327582 -0.05335811 61.20057361 -0.04751682 50.517869 C-0.03810163 33.67856902 -0.01818281 16.83929807 0 0 Z M3 4 C3 50.86 3 97.72 3 146 C49.86 146 96.72 146 145 146 C147.13509172 115.268169 147.13509172 115.268169 133.19335938 93.1887207 C132.79955078 92.79644287 132.40574219 92.40416504 132 92 C127.93351431 93.8177281 126.45882875 95.90557126 124.0625 99.6875 C123.37285156 100.75871094 122.68320313 101.82992187 121.97265625 102.93359375 C121.32167969 103.94550781 120.67070312 104.95742187 120 106 C118.36399371 108.35788916 116.68805246 110.67892786 115 113 C110.79759989 109.28249221 108.00217321 104.68339021 105 100 C100.94795049 101.35068317 100.12451637 103.39577729 97.8125 106.9375 C97.09707031 108.01902344 96.38164063 109.10054688 95.64453125 110.21484375 C93.83051851 112.74795887 93.83051851 112.74795887 94 115 C75.19 115 56.38 115 37 115 C37 87.61 37 60.22 37 32 C46.219375 31.896875 55.43875 31.79375 64.9375 31.6875 C69.27829712 31.58828247 69.27829712 31.58828247 73.70678711 31.48706055 C93.09461954 31.37667292 93.09461954 31.37667292 97.82470703 35.98291016 C100.25195381 39.08622646 101.74130906 42.28168613 103 46 C106.91597644 44.69467452 107.53830346 43.02734726 109.6875 39.5625 C110.31011719 38.57378906 110.93273437 37.58507813 111.57421875 36.56640625 C113.16188098 34.19792479 113.16188098 34.19792479 113 32 C116.6589514 33.21965047 117.04717696 34.22184686 119.03125 37.4375 C119.87623047 38.77941406 119.87623047 38.77941406 120.73828125 40.1484375 C121.91276042 42.04947917 123.08723958 43.95052083 124.26171875 45.8515625 C125.10669922 47.19347656 125.10669922 47.19347656 125.96875 48.5625 C126.47857422 49.38878906 126.98839844 50.21507812 127.51367188 51.06640625 C128.93558802 53.28932101 128.93558802 53.28932101 132 54 C133.6509933 51.39907118 135.29488318 48.7937256 136.9375 46.1875 C137.40607422 45.44951172 137.87464844 44.71152344 138.35742188 43.95117188 C138.80537109 43.23896484 139.25332031 42.52675781 139.71484375 41.79296875 C140.12855225 41.1383667 140.54226074 40.48376465 140.96850586 39.80932617 C142.15126101 37.87143744 142.15126101 37.87143744 143 35 C143.66 35 144.32 35 145 35 C145 24.77 145 14.54 145 4 C98.14 4 51.28 4 3 4 Z " fill="#B194BD" transform="translate(21,19)"/>
<path d="M0 0 C0.99 0.33 1.98 0.66 3 1 C2.67 48.19 2.34 95.38 2 144 C48.86 144 95.72 144 144 144 C145.0813831 113.22472796 145.0813831 113.22472796 131 91 C127.03992852 92.32002383 126.40355054 94.07014422 124.1875 97.5625 C120.97305421 102.53568138 117.63077625 107.32400028 114 112 C110.07511907 108.29939798 106.97784457 104.5093075 104 100 C104 99.34 104 98.68 104 98 C100.74244798 100.94886436 99.03212528 103.78031196 97.07202148 107.68286133 C94.98716649 111.00504318 93.92347662 112.68343507 90.17727661 113.96762085 C86.6872119 114.27384618 83.34699096 114.2390224 79.84765625 114.07421875 C78.73418823 114.06314087 77.62072021 114.05206299 76.47351074 114.04064941 C72.33522975 113.98332392 68.19873295 113.82974201 64.0625 113.6875 C50.1715625 113.3471875 50.1715625 113.3471875 36 113 C36 85.61 36 58.22 36 30 C54.81 30 73.62 30 93 30 C93 30.33 93 30.66 93 31 C74.52 31 56.04 31 37 31 C37 57.4 37 83.8 37 111 C37.66 111 38.32 111 39 111 C39 110.34 39 109.68 39 109 C39.63369507 109.01633987 40.26739014 109.03267975 40.92028809 109.04951477 C47.53986803 109.2073126 54.15593065 109.27326079 60.77734375 109.28686523 C63.2450633 109.30385832 65.71273943 109.34396106 68.1796875 109.40795898 C81.06183085 110.42014058 81.06183085 110.42014058 92.87988281 106.6605835 C95.34150442 103.88207557 96.52680437 101.26994807 97.88867188 97.79760742 C98.25541016 96.87439697 98.62214844 95.95118652 99 95 C99.99 95 100.98 95 102 95 C102 94.34 102 93.68 102 93 C102.99 93 103.98 93 105 93 C106.82421875 95.08203125 106.82421875 95.08203125 108.6875 97.8125 C109.31011719 98.70582031 109.93273437 99.59914063 110.57421875 100.51953125 C112 103 112 103 112 106 C115.78034623 102.52263974 115.78034623 102.52263974 118 98 C118.7425 97.29875 119.485 96.5975 120.25 95.875 C123.68006454 92.28902344 125.75226586 88.39025519 128 84 C130.39270868 84.38608463 131.6855435 84.66861808 133.37890625 86.453125 C133.76949219 87.04609375 134.16007813 87.6390625 134.5625 88.25 C134.95566406 88.83265625 135.34882813 89.4153125 135.75390625 90.015625 C136.64785606 91.43921905 137.50938945 92.88336575 138.34912109 94.33959961 C139.91647847 96.99973199 139.91647847 96.99973199 141.80883789 99.18481445 C148.81651157 108.14055303 147.80024405 117.39415357 147.4375 128.1875 C147.40232303 130.01621596 147.37039534 131.84499746 147.34179688 133.67382812 C147.26531568 138.11752715 147.14489195 142.55802691 147 147 C127.98123736 147.02332777 108.96247761 147.04097858 89.94370365 147.05181217 C81.11358729 147.05697539 72.28347981 147.06401857 63.45336914 147.07543945 C55.75987935 147.08538551 48.06639599 147.09185324 40.37289995 147.09408849 C36.29670348 147.09539574 32.22052539 147.09848243 28.14433479 147.10573006 C24.31212245 147.11248904 20.47993616 147.11461721 16.64771843 147.11310768 C15.23714939 147.11338406 13.82657953 147.11538991 12.41601562 147.11920547 C10.49834311 147.12414075 8.58065679 147.12239802 6.66297913 147.12025452 C5.58724671 147.12117631 4.5115143 147.1220981 3.40318394 147.12304783 C1 147 1 147 0 146 C-0.09654727 144.11438482 -0.12187241 142.22510545 -0.12025452 140.33702087 C-0.12162918 139.10717972 -0.12300385 137.87733856 -0.12442017 136.61022949 C-0.12088056 135.23486304 -0.11724574 133.85949683 -0.11352539 132.48413086 C-0.11324352 131.04557802 -0.11340124 129.60702504 -0.1139679 128.16847229 C-0.11425589 124.25128857 -0.10835884 120.33413521 -0.10139394 116.41695857 C-0.09516074 112.32766163 -0.09455663 108.23836407 -0.09336853 104.14906311 C-0.09025511 96.40007602 -0.08204159 88.65110297 -0.07201904 80.90212208 C-0.06085822 72.08243791 -0.05534753 63.26275309 -0.05032361 54.44306362 C-0.03985898 36.29536777 -0.02225934 18.14768501 0 0 Z " fill="#A677B7" transform="translate(22,21)"/>
<path d="M0 0 C18.81 0 37.62 0 57 0 C57 0.33 57 0.66 57 1 C38.52 1 20.04 1 1 1 C1 27.4 1 53.8 1 81 C1.66 81 2.32 81 3 81 C3 80.34 3 79.68 3 79 C3.64257751 79.00079559 4.28515503 79.00159119 4.94720459 79.00241089 C11.63098317 79.00484726 18.31359832 78.96571088 24.99707031 78.90234375 C27.491807 78.88416716 29.98664455 78.87661822 32.48144531 78.87988281 C36.06655165 78.88273493 39.6495589 78.84746791 43.234375 78.8046875 C44.35116638 78.81378143 45.46795776 78.82287537 46.61859131 78.83224487 C49.53682214 78.77737945 52.16139424 78.68015117 55 78 C57.74030003 75.25070064 57.74030003 75.25070064 59 72 C60.625 70.125 60.625 70.125 62 69 C62.66 69 63.32 69 64 69 C64.495 67.515 64.495 67.515 65 66 C66.1344214 69.4032642 65.72732198 70.94131978 64.36912537 74.19943237 C62.45873244 77.92943077 60.58420714 80.71782009 57 83 C47.69695932 85.46261086 37.42161122 84.29271385 27.9375 83.875 C18.718125 83.58625 9.49875 83.2975 0 83 C0 55.61 0 28.22 0 0 Z " fill="#8D639E" transform="translate(58,51)"/>
<path d="M0 0 C2.39270868 0.38608463 3.6855435 0.66861808 5.37890625 2.453125 C5.96478516 3.34257813 5.96478516 3.34257813 6.5625 4.25 C7.19865234 5.20519531 7.19865234 5.20519531 7.84765625 6.1796875 C11.11219086 11.33654556 14.05438251 16.65597459 17 22 C14.80078125 21.94140625 14.80078125 21.94140625 12 21 C10.06263267 18.8487919 8.65026612 16.42736645 7.1875 13.9375 C6.57745117 12.94266602 6.57745117 12.94266602 5.95507812 11.92773438 C4.95587422 10.2937421 3.97601184 8.64795027 3 7 C-0.96007148 8.32002383 -1.59644946 10.07014422 -3.8125 13.5625 C-7.02694579 18.53568138 -10.36922375 23.32400028 -14 28 C-17.92488093 24.29939798 -21.02215543 20.5093075 -24 16 C-24 15.34 -24 14.68 -24 14 C-25.98 14.33 -27.96 14.66 -30 15 C-30.33 15.99 -30.66 16.98 -31 18 C-31.33 17.34 -31.66 16.68 -32 16 C-30.75 13.375 -30.75 13.375 -29 11 C-28.01 11 -27.02 11 -26 11 C-26 10.34 -26 9.68 -26 9 C-25.01 9 -24.02 9 -23 9 C-21.17578125 11.08203125 -21.17578125 11.08203125 -19.3125 13.8125 C-18.68988281 14.70582031 -18.06726563 15.59914063 -17.42578125 16.51953125 C-16 19 -16 19 -16 22 C-12.21965377 18.52263974 -12.21965377 18.52263974 -10 14 C-9.2575 13.29875 -8.515 12.5975 -7.75 11.875 C-4.31993546 8.28902344 -2.24773414 4.39025519 0 0 Z " fill="#B288C0" transform="translate(150,105)"/>
<path d="M0 0 C1.32 0 2.64 0 4 0 C5.66577625 3.33155251 5.12007856 7.06536059 5.09765625 10.7265625 C5.09553383 12.02078629 5.09553383 12.02078629 5.09336853 13.34115601 C5.08776188 16.1024723 5.07520827 18.86370812 5.0625 21.625 C5.05748586 23.4947905 5.0529228 25.36458226 5.04882812 27.234375 C5.03779029 31.82294777 5.0205212 36.41146023 5 41 C4.67 40.34 4.34 39.68 4 39 C-43.52 39 -91.04 39 -140 39 C-140 38.67 -140 38.34 -140 38 C-93.14 38 -46.28 38 2 38 C2.82441894 18.67713141 2.82441894 18.67713141 0 0 Z " fill="#B183C2" transform="translate(164,127)"/>
<path d="M0 0 C2.78105527 0.34358201 3.78900113 0.74749002 5.61572266 2.93359375 C6.1266748 3.75988281 6.63762695 4.58617187 7.1640625 5.4375 C7.72867188 6.33210938 8.29328125 7.22671875 8.875 8.1484375 C9.4525 9.08945312 10.03 10.03046875 10.625 11 C11.77973603 12.85673415 12.93839501 14.71103615 14.1015625 16.5625 C14.86460693 17.80193359 14.86460693 17.80193359 15.64306641 19.06640625 C16.86194053 21.12898715 16.86194053 21.12898715 19 22 C19.2475 21.29875 19.495 20.5975 19.75 19.875 C21.16088026 16.62997541 22.97895398 13.89683263 25 11 C26.63826791 14.27653582 25.85071425 16.48371442 25 20 C23.29643201 22.93136475 21.45420667 25.64957819 19 28 C18.01 28 17.02 28 16 28 C14.68139648 26.48706055 14.68139648 26.48706055 13.37109375 24.38671875 C12.89349609 23.63326172 12.41589844 22.87980469 11.92382812 22.10351562 C11.43333984 21.30623047 10.94285156 20.50894531 10.4375 19.6875 C9.94314453 18.90181641 9.44878906 18.11613281 8.93945312 17.30664062 C8.01779263 15.84121291 7.10058042 14.37297173 6.18920898 12.90112305 C3.93105717 8.98803376 3.93105717 8.98803376 0 7 C-0.33 7.66 -0.66 8.32 -1 9 C-1.625 6.1875 -1.625 6.1875 -2 3 C-1.34 2.01 -0.68 1.02 0 0 Z " fill="#B08CBE" transform="translate(134,51)"/>
<path d="M0 0 C1.6156651 3.23133019 0.7953966 5.53434338 0 9 C-1.4901787 11.53773007 -3.15866043 13.68652208 -5 16 C-5.99 15.67 -6.98 15.34 -8 15 C-7.34 15 -6.68 15 -6 15 C-6 14.34 -6 13.68 -6 13 C-7.32 12.34 -8.64 11.68 -10 11 C-9.67 10.34 -9.34 9.68 -9 9 C-7.515 9.99 -7.515 9.99 -6 11 C-5.7525 10.29875 -5.505 9.5975 -5.25 8.875 C-3.83911974 5.62997541 -2.02104602 2.89683263 0 0 Z " fill="#9D76AC" transform="translate(159,62)"/>
<path d="M0 0 C1.8671875 0.25 1.8671875 0.25 4 1 C5.1953125 2.8125 5.1953125 2.8125 6.125 5 C7.33799788 8.15762198 7.33799788 8.15762198 10 10 C10 11.32 10 12.64 10 14 C9.01 14 8.02 14 7 14 C5.17578125 11.69921875 5.17578125 11.69921875 3.3125 8.6875 C2.37857422 7.20830078 2.37857422 7.20830078 1.42578125 5.69921875 C0 3 0 3 0 0 Z " fill="#B18AC0" transform="translate(143,65)"/>
<path d="M0 0 C0.66 0 1.32 0 2 0 C0.40956621 5.08938811 -2.7446951 8.87456643 -6 13 C-7.32 12.67 -8.64 12.34 -10 12 C-7.90778505 6.88569679 -5.67751134 4.84718082 -1 2 C-0.67 1.34 -0.34 0.68 0 0 Z " fill="#B79AC2" transform="translate(147,113)"/>
<path d="M0 0 C3.86882056 1.46748366 5.29173197 3.25807955 7 7 C7.51692769 9.67907714 7.76891068 12.27314602 8 15 C4.62755348 11.00302635 1.28625278 6.72909821 -1 2 C-0.67 1.34 -0.34 0.68 0 0 Z " fill="#AD84BC" transform="translate(114,53)"/>
<path d="M0 0 C0.99 0 1.98 0 3 0 C3 12.21 3 24.42 3 37 C2.67 37 2.34 37 2 37 C1.97494385 35.98574951 1.9498877 34.97149902 1.92407227 33.92651367 C1.82990355 30.16368973 1.72970595 26.40104631 1.62768555 22.63842773 C1.58437251 21.00988996 1.54269482 19.38130784 1.50268555 17.75268555 C1.44489497 15.41181065 1.38122602 13.07115824 1.31640625 10.73046875 C1.29969376 10.00224411 1.28298126 9.27401947 1.26576233 8.52372742 C1.17532762 5.43833061 0.98276007 2.94828022 0 0 Z " fill="#A873BB" transform="translate(164,127)"/>
<path d="M0 0 C0.66 0.99 1.32 1.98 2 3 C0.88368586 4.83863505 -0.24329627 6.67079723 -1.375 8.5 C-2.00148438 9.5209375 -2.62796875 10.541875 -3.2734375 11.59375 C-3.84320313 12.3878125 -4.41296875 13.181875 -5 14 C-5.66 14 -6.32 14 -7 14 C-7.33 13.01 -7.66 12.02 -8 11 C-6.43951112 7.87902225 -4.70219441 5.23224755 -2 3 C-1.34 3 -0.68 3 0 3 C0 2.01 0 1.02 0 0 Z " fill="#AB7ABD" transform="translate(122,117)"/>
<path d="M0 0 C0.99 0 1.98 0 3 0 C4.32 2.31 5.64 4.62 7 7 C6.01 6.67 5.02 6.34 4 6 C4 5.34 4 4.68 4 4 C2.68428397 4.2547514 1.37239624 4.52934141 0.0625 4.8125 C-0.66839844 4.96332031 -1.39929688 5.11414063 -2.15234375 5.26953125 C-3.06693359 5.63111328 -3.06693359 5.63111328 -4 6 C-4.33 6.99 -4.66 7.98 -5 9 C-5.33 8.34 -5.66 7.68 -6 7 C-4.75 4.375 -4.75 4.375 -3 2 C-2.01 2 -1.02 2 0 2 C0 1.34 0 0.68 0 0 Z " fill="#C2AACB" transform="translate(124,114)"/>
<path d="M0 0 C0.66 0 1.32 0 2 0 C1.36276989 3.47290409 -0.02437217 5.84354753 -2 8.75 C-2.804375 9.94882813 -2.804375 9.94882813 -3.625 11.171875 C-4.07875 11.77515625 -4.5325 12.3784375 -5 13 C-5.33 13 -5.66 13 -6 13 C-5.67 10.69 -5.34 8.38 -5 6 C-4.01 6 -3.02 6 -2 6 C-2 5.01 -2 4.02 -2 3 C-1.34 3 -0.68 3 0 3 C0 2.01 0 1.02 0 0 Z " fill="#BA9DC6" transform="translate(165,56)"/>
<path d="M0 0 C1.875 0.1875 1.875 0.1875 4 1 C5.25 3.5625 5.25 3.5625 6 6 C3.36 5.67 0.72 5.34 -2 5 C-1.34 3.35 -0.68 1.7 0 0 Z " fill="#9C6BAE" transform="translate(134,51)"/>
<path d="M0 0 C1.32 0.33 2.64 0.66 4 1 C4.33 1.66 4.66 2.32 5 3 C3.35 3.33 1.7 3.66 0 4 C-0.33 5.32 -0.66 6.64 -1 8 C-1.66 8 -2.32 8 -3 8 C-3.33 8.99 -3.66 9.98 -4 11 C-4.66 10.67 -5.32 10.34 -6 10 C-4.02 6.7 -2.04 3.4 0 0 Z " fill="#C0AEC7" transform="translate(150,105)"/>
<path d="M0 0 C4 0 4 0 6.25 2 C6.8275 2.66 7.405 3.32 8 4 C7.34 5.32 6.68 6.64 6 8 C2 3.25 2 3.25 2 1 C1.34 0.67 0.68 0.34 0 0 Z " fill="#AC7DBD" transform="translate(124,118)"/>
<path d="M0 0 C-1.45044271 4.10958767 -3.51110752 7.43258745 -6 11 C-6.86476686 8.57865279 -7.1422798 7.39126946 -6.25 4.9375 C-3.06451613 0 -3.06451613 0 0 0 Z " fill="#A876BA" transform="translate(149,113)"/>
<path d="M0 0 C2.475 0.495 2.475 0.495 5 1 C5.33 3.64 5.66 6.28 6 9 C3.59927045 6.11912454 1.52708963 3.43595166 0 0 Z " fill="#B699C2" transform="translate(116,59)"/>
<path d="M0 0 C0.99 0.33 1.98 0.66 3 1 C3 1.66 3 2.32 3 3 C0.69 4.32 -1.62 5.64 -4 7 C-2.92598892 4.08482708 -2.22189824 2.22189824 0 0 Z " fill="#4C375B" transform="translate(151,111)"/>
<path d="M0 0 C2.97 0.495 2.97 0.495 6 1 C6 2.65 6 4.3 6 6 C4.68 6.33 3.36 6.66 2 7 C2.66 6.67 3.32 6.34 4 6 C4 5.34 4 4.68 4 4 C2.68 3.34 1.36 2.68 0 2 C0 1.34 0 0.68 0 0 Z " fill="#A57AB5" transform="translate(149,71)"/>
<path d="M0 0 C0.66 0 1.32 0 2 0 C1.67 1.65 1.34 3.3 1 5 C0.34 5 -0.32 5 -1 5 C-1 5.99 -1 6.98 -1 8 C-1.99 8 -2.98 8 -4 8 C-2.87548273 5.0280615 -1.77706209 2.66559313 0 0 Z " fill="#8E64A0" transform="translate(164,54)"/>
<path d="M0 0 C0.33 0 0.66 0 1 0 C1.125 5.75 1.125 5.75 0 8 C-0.66 8 -1.32 8 -2 8 C-2.33 7.01 -2.66 6.02 -3 5 C-1.625 2.3125 -1.625 2.3125 0 0 Z " fill="#B28EC1" transform="translate(117,123)"/>
<path d="M0 0 C0.66 0.66 1.32 1.32 2 2 C1.625 4.625 1.625 4.625 1 7 C0.67 6.34 0.34 5.68 0 5 C-0.99 5.33 -1.98 5.66 -3 6 C-1.125 1.125 -1.125 1.125 0 0 Z " fill="#9F77AE" transform="translate(131,56)"/>
</svg>
